HIERARCHY
ROOT Hips
{
	OFFSET 51.810799 -9.025853 84.308403
	CHANNELS 6 Xposition Yposition Zposition Xrotation Yrotation Zrotation
	JOINT spine
	{
		OFFSET 0.000000 -0.342408 5.954384
		CHANNELS 3 Xrotation Yrotation Zrotation
		JOINT spine1
		{
			OFFSET 0.000000 -0.000002 8.856018
			CHANNELS 3 Xrotation Yrotation Zrotation
			JOINT spine2
			{
				OFFSET 0.000000 -0.000001 8.485672
				CHANNELS 3 Xrotation Yrotation Zrotation
				JOINT Neck
				{
					OFFSET 0.000000 -1.038704 21.786301
					CHANNELS 3 Xrotation Yrotation Zrotation
					JOINT Head
					{
						OFFSET 0.000000 -0.000001 6.582199
						CHANNELS 3 Xrotation Yrotation Zrotation
						End Site
						{
							OFFSET 0.000000 5.254357 15.932602
						}
					}
				}
				JOINT RightShoulder
				{
					OFFSET -3.573071 0.497523 9.163864
					CHANNELS 3 Xrotation Yrotation Zrotation
					JOINT RightArm
					{
						OFFSET 0.000000 -0.000002 12.019196
						CHANNELS 3 Xrotation Yrotation Zrotation
						JOINT RightArmRoll
						{
							OFFSET 0.000000 -0.000001 6.067551
							CHANNELS 3 Xrotation Yrotation Zrotation
							JOINT RightForeArm
							{
								OFFSET 0.000000 -0.000003 17.672592
								CHANNELS 3 Xrotation Yrotation Zrotation
								JOINT RightForeArmRoll
								{
									OFFSET 0.000000 -0.000001 6.808716
									CHANNELS 3 Xrotation Yrotation Zrotation
									JOINT RightHand
									{
										OFFSET 0.000000 -0.000003 13.663605
										CHANNELS 3 Xrotation Yrotation Zrotation
										End Site
										{
											OFFSET 0.000000 0.000000 0.100006
										}
									}
								}
							}
						}
					}
				}
				JOINT LeftShoulder
				{
					OFFSET 3.573071 0.497523 9.163864
					CHANNELS 3 Xrotation Yrotation Zrotation
					JOINT LeftArm
					{
						OFFSET 0.000000 -0.000002 12.019196
						CHANNELS 3 Xrotation Yrotation Zrotation
						JOINT LeftArmRoll
						{
							OFFSET 0.000000 -0.000001 6.067551
							CHANNELS 3 Xrotation Yrotation Zrotation
							JOINT LeftForeArm
							{
								OFFSET 0.000000 -0.000003 17.672592
								CHANNELS 3 Xrotation Yrotation Zrotation
								JOINT LeftForeArmRoll
								{
									OFFSET 0.000000 -0.000001 6.808716
									CHANNELS 3 Xrotation Yrotation Zrotation
									JOINT LeftHand
									{
										OFFSET 0.000000 -0.000003 13.663605
										CHANNELS 3 Xrotation Yrotation Zrotation
										End Site
										{
											OFFSET 0.000000 0.000000 0.100006
										}
									}
								}
							}
						}
					}
				}
			}
		}
	}
	JOINT RightUpLeg
	{
		OFFSET -5.277740 0.811858 -0.967796
		CHANNELS 3 Xrotation Yrotation Zrotation
		JOINT RightUpLegRoll
		{
			OFFSET 0.000000 -0.000003 16.021400
			CHANNELS 3 Xrotation Yrotation Zrotation
			JOINT RightLeg
			{
				OFFSET 0.000000 0.000003 -19.840096
				CHANNELS 3 Xrotation Yrotation Zrotation
				JOINT RightLegRoll
				{
					OFFSET 0.000000 -0.000003 19.904999
					CHANNELS 3 Xrotation Yrotation Zrotation
					JOINT RightFoot
					{
						OFFSET 0.000000 -0.000003 16.567497
						CHANNELS 3 Xrotation Yrotation Zrotation
						JOINT RightToeBase
						{
							OFFSET 0.000000 -0.000002 13.849602
							CHANNELS 3 Xrotation Yrotation Zrotation
							End Site
							{
								OFFSET 0.005871 0.773116 6.707275
							}
						}
					}
				}
			}
		}
	}
	JOINT LeftUpLeg
	{
		OFFSET 5.277740 0.811858 -0.967796
		CHANNELS 3 Xrotation Yrotation Zrotation
		JOINT LeftUpLegRoll
		{
			OFFSET 0.000000 -0.000003 16.021500
			CHANNELS 3 Xrotation Yrotation Zrotation
			JOINT LeftLeg
			{
				OFFSET 0.000000 -0.000003 19.839996
				CHANNELS 3 Xrotation Yrotation Zrotation
				JOINT LeftLegRoll
				{
					OFFSET 0.000000 -0.000004 20.089005
					CHANNELS 3 Xrotation Yrotation Zrotation
					JOINT LeftFoot
					{
						OFFSET 0.000000 -0.000003 16.383499
						CHANNELS 3 Xrotation Yrotation Zrotation
						JOINT LeftToeBase
						{
							OFFSET 0.000000 -0.000002 13.849594
							CHANNELS 3 Xrotation Yrotation Zrotation
							End Site
							{
								OFFSET -0.026310 0.773116 6.707275
							}
						}
					}
				}
			}
		}
	}
}
MOTION
Frames: 6
Frame Time: 0.041667
51.374195 -5.864212 83.725700 1.101011 1.024881 17.267905 0.068697 -0.173143 0.121121 4.140667 -0.344845 0.248527 5.785744 -0.341862 0.252676 -10.776579 41.172821 -2.750454 10.775243 -43.044784 -9.022153 -2.648506 -12.183563 4.242603 -78.550433 -159.955927 -99.224952 -0.000001 -0.000003 0.000000 62.718533 2.798698 -4.281629 -0.000002 0.000005 -2.999379 -5.000154 -7.999929 0.000010 -31.616925 68.389154 36.606303 -77.116756 178.592385 110.893073 0.000003 0.000000 0.000001 106.221415 -1.163997 4.708878 0.000001 0.000003 3.000000 -5.000174 7.999951 -0.000015 -7.488432 177.175244 -0.881219 -179.999991 0.000005 -0.997995 167.472632 0.365099 -0.505874 -0.000000 0.000003 0.102129 68.479395 6.879043 2.181225 25.456962 -7.352353 0.000004 -15.419176 177.823196 1.306077 -0.000005 -0.000004 -0.963398 -20.044778 0.582038 0.782097 -0.000003 0.000002 -0.330567 70.373160 -6.836160 -2.191823 25.456955 7.355613 0.000001 
51.375195 -5.833542 83.715195 1.030618 0.999676 17.127920 0.077369 -0.174314 0.120485 4.158018 -0.347170 0.248040 5.803087 -0.344192 0.252164 -10.708873 40.996691 -2.720846 10.676550 -42.860322 -8.974515 -2.606446 -12.494968 4.235996 -78.324204 -159.706584 -99.273384 -0.000001 -0.000004 0.000000 63.663025 2.767910 -4.294361 -0.000004 0.000004 -2.999500 -5.000156 -7.999930 0.000011 -31.264979 68.227982 36.224619 -77.097966 178.675235 110.835201 0.000001 -0.000001 0.000004 105.740098 -1.183237 4.710566 0.000002 0.000000 3.000000 -5.000174 7.999948 -0.000017 -7.399812 177.197496 -0.863896 -179.999991 0.000005 -1.000002 167.481935 0.366086 -0.505715 -0.000000 0.000003 0.100809 68.454704 6.879186 2.180991 25.456964 -7.352349 0.000004 -15.316388 177.833701 1.297929 -0.000003 -0.000005 -0.965269 -20.073677 0.581184 0.783479 -0.000004 0.000002 -0.332402 70.396793 -6.836012 -2.191944 25.456957 7.355613 0.000001 
51.411598 -5.875091 83.719391 0.962819 0.973624 16.986336 0.085623 -0.175663 0.119866 4.174518 -0.349850 0.247543 5.819597 -0.346876 0.251657 -10.647253 40.823071 -2.686637 10.581132 -42.668684 -8.925402 -2.568175 -12.807352 4.223967 -78.094020 -159.477103 -99.322862 -0.000000 -0.000002 0.000000 64.567848 2.738341 -4.304991 -0.000000 0.000006 -2.999622 -5.000150 -7.999927 0.000009 -30.908515 68.066639 35.836899 -77.080153 178.761022 110.772711 0.000000 0.000000 -0.000002 105.227896 -1.204055 4.710954 0.000001 0.000003 3.000001 -5.000173 7.999949 -0.000016 -7.317253 177.220774 -0.845346 -179.999991 0.000005 -1.001001 167.486238 0.366092 -0.505739 -0.000000 0.000003 0.099727 68.432321 6.879305 2.180908 25.456957 -7.352354 0.000005 -15.214861 177.848099 1.291747 -0.000003 -0.000004 -0.967106 -20.099976 0.579610 0.784677 -0.000004 0.000002 -0.334082 70.418294 -6.835842 -2.192192 25.456959 7.355613 -0.000001 
51.440300 -5.849561 83.715195 0.898634 0.946418 16.843953 0.093300 -0.177176 0.119269 4.189881 -0.352861 0.247021 5.834961 -0.349893 0.251127 -10.593027 40.652118 -2.647326 10.490715 -42.468429 -8.874496 -2.534649 -13.119500 4.205319 -77.861049 -159.258811 -99.373768 -0.000001 -0.000005 0.000001 65.449864 2.709489 -4.314894 -0.000002 0.000004 -2.999729 -5.000152 -7.999931 0.000010 -30.546457 67.905748 35.441903 -77.063761 178.850880 110.704724 0.000002 0.000000 0.000001 104.680832 -1.225791 4.711912 0.000000 0.000004 3.000000 -5.000173 7.999944 -0.000017 -7.242476 177.249078 -0.825726 -179.999991 0.000005 -1.002995 167.484339 0.366089 -0.505729 -0.000000 0.000003 0.098931 68.412910 6.879480 2.180750 25.456964 -7.352352 0.000005 -15.115209 177.866391 1.288182 -0.000003 -0.000005 -0.968896 -20.122571 0.577331 0.785641 -0.000003 0.000002 -0.335560 70.437050 -6.835719 -2.192217 25.456955 7.355610 0.000001 
51.467003 -5.866176 83.717003 0.839131 0.917736 16.701558 0.100264 -0.178844 0.118686 4.203803 -0.356183 0.246454 5.848874 -0.353220 0.250562 -10.547474 40.483948 -2.602480 10.407058 -42.258316 -8.821293 -2.506819 -13.430701 4.178797 -77.626644 -159.043045 -99.426811 -0.000000 -0.000005 0.000001 66.325631 2.680862 -4.325435 -0.000004 0.000005 -2.999838 -5.000153 -7.999931 0.000011 -30.178491 67.746003 35.039096 -77.049178 178.945970 110.634373 0.000002 -0.000001 -0.000001 104.094986 -1.249037 4.711426 0.000001 0.000001 3.000000 -5.000173 7.999946 -0.000018 -7.177236 177.280429 -0.804452 -179.999991 0.000005 -1.005004 167.475036 0.366076 -0.506682 -0.000000 0.000003 0.098474 68.397057 6.879621 2.180664 25.456964 -7.352349 0.000004 -15.018191 177.890528 1.287375 -0.000003 -0.000005 -0.970617 -20.140558 0.574363 0.786333 -0.000004 0.000002 -0.336779 70.452418 -6.835629 -2.192257 25.456957 7.355616 -0.000001 
51.492500 -5.867551 83.717102 0.785351 0.887242 16.559939 0.106356 -0.180655 0.118122 4.215974 -0.359792 0.245823 5.861046 -0.356836 0.249941 -10.511876 40.318849 -2.551658 10.331882 -42.037004 -8.765636 -2.485622 -13.739852 4.143133 -77.391904 -158.821159 -99.482156 -0.000000 -0.000005 0.000001 67.212217 2.651862 -4.338043 -0.000005 0.000005 -2.999932 -5.000154 -7.999930 0.000012 -29.803875 67.588280 34.627570 -77.036925 179.047658 110.559814 0.000001 -0.000000 -0.000001 103.466397 -1.273741 4.711392 -0.000000 0.000004 2.999999 -5.000176 7.999944 -0.000017 -7.123270 177.316833 -0.781432 -179.999991 0.000005 -1.006000 167.457237 0.365077 -0.507783 -0.000001 0.000003 0.098406 68.385432 6.879816 2.180426 25.456965 -7.352350 0.000005 -14.924428 177.920540 1.289982 -0.000003 -0.000004 -0.972243 -20.152944 0.570721 0.786717 -0.000004 0.000002 -0.337697 70.463851 -6.835508 -2.192333 25.456955 7.355612 0.000001 
